<?xml version="1.0" encoding="UTF-8"?>
<svg id="Lager_1" xmlns="http://www.w3.org/2000/svg" viewBox="0 0 337.11 324.65">
    <path fill="#0077F8" d="M334.93,291.13c-4.59-22.42-10.81-47.16-13.33-70.69-6.34-59.5,4.2-116.8-38.53-165.86C248.01,13.09,189-6.77,134.93,2.06l-.21.03C58.02,12.69-6.2,83.66.48,161.88c2.14,31.04,15.02,61.2,36.05,84.16,24.91,27.75,60.53,43.22,97.28,47.58,34.53,4.64,70.02,1.72,104.21,8.6,26.14,4.47,57.82,18.14,80.04,21.98,23.11,3.7,20.05-16.46,16.87-33.07ZM93.83,174.29c-11.05,0-20-8.95-20-20s8.95-20,20-20,20,8.95,20,20-8.96,20-20,20ZM161.52,174.29c-11.05,0-20-8.95-20-20s8.95-20,20-20,20,8.95,20,20-8.95,20-20,20ZM229.21,174.29c-11.04,0-20-8.95-20-20s8.96-20,20-20,20,8.95,20,20-8.95,20-20,20Z"/>
</svg>